<mxfile host="app.diagrams.net" agent="Mozilla/5.0 (X11; Linux x86_64) AppleWebKit/537.36 (KHTML, like Gecko) Chrome/121.0.0.0 Safari/537.36" version="26.2.14">
  <diagram name="Página-1" id="SAZ3PyA_UbpgVHjmQ9m2">
    <mxGraphModel dx="802" dy="486" grid="0" gridSize="10" guides="1" tooltips="1" connect="1" arrows="1" fold="1" page="1" pageScale="1" pageWidth="827" pageHeight="1169" background="#1A1A1A" math="0" shadow="0">
      <root>
        <mxCell id="0" />
        <mxCell id="1" parent="0" />
        <mxCell id="jZbSrkcyQa67GuuQDNa2-19" style="edgeStyle=orthogonalEdgeStyle;rounded=0;orthogonalLoop=1;jettySize=auto;html=1;entryX=0.5;entryY=0;entryDx=0;entryDy=0;flowAnimation=1;" parent="1" source="jZbSrkcyQa67GuuQDNa2-1" target="jZbSrkcyQa67GuuQDNa2-13" edge="1">
          <mxGeometry relative="1" as="geometry" />
        </mxCell>
        <mxCell id="jZbSrkcyQa67GuuQDNa2-1" value="&amp;nbsp; &amp;nbsp; &amp;nbsp; &amp;nbsp; &amp;nbsp; &amp;nbsp; &amp;nbsp;Efetuar pagamento" style="rounded=0;whiteSpace=wrap;html=1;" parent="1" vertex="1">
          <mxGeometry x="205" y="48" width="200" height="70" as="geometry" />
        </mxCell>
        <mxCell id="jZbSrkcyQa67GuuQDNa2-6" value="SQL" style="shape=cylinder3;whiteSpace=wrap;html=1;boundedLbl=1;backgroundOutline=1;size=7;fillColor=#007FFF;gradientColor=none;strokeWidth=3;strokeColor=#FFFFFF;shadow=0;textShadow=0;fontStyle=1;fontSize=20;fontColor=#FFFFFF;labelBorderColor=none;labelBackgroundColor=none;spacing=4;spacingLeft=1;spacingBottom=7;" parent="1" vertex="1">
          <mxGeometry x="480" y="57" width="51" height="63" as="geometry" />
        </mxCell>
        <mxCell id="jZbSrkcyQa67GuuQDNa2-7" style="edgeStyle=orthogonalEdgeStyle;rounded=0;orthogonalLoop=1;jettySize=auto;html=1;entryX=-0.03;entryY=0.592;entryDx=0;entryDy=0;entryPerimeter=0;flowAnimation=1;" parent="1" source="jZbSrkcyQa67GuuQDNa2-1" target="jZbSrkcyQa67GuuQDNa2-6" edge="1">
          <mxGeometry relative="1" as="geometry" />
        </mxCell>
        <mxCell id="jZbSrkcyQa67GuuQDNa2-12" value="" style="aspect=fixed;sketch=0;html=1;dashed=0;whitespace=wrap;verticalLabelPosition=bottom;verticalAlign=top;fillColor=#1A1A1A;strokeColor=#ffffff;points=[[0.005,0.63,0],[0.1,0.2,0],[0.9,0.2,0],[0.5,0,0],[0.995,0.63,0],[0.72,0.99,0],[0.5,1,0],[0.28,0.99,0]];shape=mxgraph.kubernetes.icon2;kubernetesLabel=1;prIcon=api;labelBackgroundColor=#1A1A1A;" parent="1" vertex="1">
          <mxGeometry x="207.92000000000002" y="58" width="52.08" height="50" as="geometry" />
        </mxCell>
        <mxCell id="jZbSrkcyQa67GuuQDNa2-13" value="Tópico&amp;nbsp;&lt;div&gt;Pagamento&lt;/div&gt;" style="rounded=0;whiteSpace=wrap;html=1;" parent="1" vertex="1">
          <mxGeometry x="205" y="159" width="200" height="70" as="geometry" />
        </mxCell>
        <mxCell id="jZbSrkcyQa67GuuQDNa2-14" value="Gerar&amp;nbsp;&lt;div&gt;Contrato&lt;/div&gt;" style="rounded=0;whiteSpace=wrap;html=1;" parent="1" vertex="1">
          <mxGeometry x="60" y="310" width="200" height="70" as="geometry" />
        </mxCell>
        <mxCell id="jZbSrkcyQa67GuuQDNa2-22" style="edgeStyle=orthogonalEdgeStyle;rounded=0;orthogonalLoop=1;jettySize=auto;html=1;flowAnimation=1;" parent="1" source="jZbSrkcyQa67GuuQDNa2-15" target="jZbSrkcyQa67GuuQDNa2-21" edge="1">
          <mxGeometry relative="1" as="geometry" />
        </mxCell>
        <mxCell id="jZbSrkcyQa67GuuQDNa2-26" style="edgeStyle=orthogonalEdgeStyle;rounded=0;orthogonalLoop=1;jettySize=auto;html=1;flowAnimation=1;" parent="1" source="jZbSrkcyQa67GuuQDNa2-15" target="jZbSrkcyQa67GuuQDNa2-13" edge="1">
          <mxGeometry relative="1" as="geometry" />
        </mxCell>
        <mxCell id="jZbSrkcyQa67GuuQDNa2-15" value="Notificar&lt;div&gt;Pagamento&lt;/div&gt;" style="rounded=0;whiteSpace=wrap;html=1;" parent="1" vertex="1">
          <mxGeometry x="350" y="310" width="200" height="70" as="geometry" />
        </mxCell>
        <mxCell id="jZbSrkcyQa67GuuQDNa2-17" style="edgeStyle=orthogonalEdgeStyle;rounded=0;orthogonalLoop=1;jettySize=auto;html=1;entryX=0.855;entryY=0;entryDx=0;entryDy=4.35;entryPerimeter=0;flowAnimation=1;" parent="1" source="jZbSrkcyQa67GuuQDNa2-14" edge="1">
          <mxGeometry relative="1" as="geometry">
            <mxPoint x="112.75" y="424.35" as="targetPoint" />
          </mxGeometry>
        </mxCell>
        <mxCell id="jZbSrkcyQa67GuuQDNa2-18" value="" style="sketch=0;points=[[0,0,0],[0.25,0,0],[0.5,0,0],[0.75,0,0],[1,0,0],[0,1,0],[0.25,1,0],[0.5,1,0],[0.75,1,0],[1,1,0],[0,0.25,0],[0,0.5,0],[0,0.75,0],[1,0.25,0],[1,0.5,0],[1,0.75,0]];outlineConnect=0;fontColor=#232F3E;fillColor=#1A1A1A;strokeColor=#ffffff;dashed=0;verticalLabelPosition=bottom;verticalAlign=top;align=center;html=1;fontSize=12;fontStyle=0;aspect=fixed;shape=mxgraph.aws4.resourceIcon;resIcon=mxgraph.aws4.managed_streaming_for_kafka;" parent="1" vertex="1">
          <mxGeometry x="213.96000000000004" y="174" width="40" height="40" as="geometry" />
        </mxCell>
        <mxCell id="jZbSrkcyQa67GuuQDNa2-21" value="Email" style="sketch=0;outlineConnect=0;fontColor=#232F3E;gradientColor=none;strokeColor=#232F3E;fillColor=#ffffff;dashed=0;verticalLabelPosition=bottom;verticalAlign=top;align=center;html=1;fontSize=12;fontStyle=0;aspect=fixed;shape=mxgraph.aws4.resourceIcon;resIcon=mxgraph.aws4.email;" parent="1" vertex="1">
          <mxGeometry x="430" y="430" width="57" height="57" as="geometry" />
        </mxCell>
        <mxCell id="jZbSrkcyQa67GuuQDNa2-27" style="edgeStyle=orthogonalEdgeStyle;rounded=0;orthogonalLoop=1;jettySize=auto;html=1;entryX=0.305;entryY=1;entryDx=0;entryDy=0;entryPerimeter=0;flowAnimation=1;" parent="1" source="jZbSrkcyQa67GuuQDNa2-14" target="jZbSrkcyQa67GuuQDNa2-13" edge="1">
          <mxGeometry relative="1" as="geometry" />
        </mxCell>
        <mxCell id="5ie9zzluOuPZTZ6bMeVD-2" value="" style="outlineConnect=0;dashed=0;verticalLabelPosition=bottom;verticalAlign=top;align=center;html=1;shape=mxgraph.aws3.worker;fillColor=#1A1A1A;gradientColor=none;" vertex="1" parent="1">
          <mxGeometry x="70" y="320" width="50" height="50" as="geometry" />
        </mxCell>
        <mxCell id="5ie9zzluOuPZTZ6bMeVD-4" value="" style="outlineConnect=0;dashed=0;verticalLabelPosition=bottom;verticalAlign=top;align=center;html=1;shape=mxgraph.aws3.worker;fillColor=#1A1A1A;gradientColor=none;" vertex="1" parent="1">
          <mxGeometry x="360" y="320" width="50" height="50" as="geometry" />
        </mxCell>
        <mxCell id="5ie9zzluOuPZTZ6bMeVD-6" value="SQL" style="shape=cylinder3;whiteSpace=wrap;html=1;boundedLbl=1;backgroundOutline=1;size=7;fillColor=#007FFF;gradientColor=none;strokeWidth=3;strokeColor=#FFFFFF;shadow=0;textShadow=0;fontStyle=1;fontSize=20;fontColor=#FFFFFF;labelBorderColor=none;labelBackgroundColor=none;spacing=4;spacingLeft=1;spacingBottom=7;" vertex="1" parent="1">
          <mxGeometry x="86" y="427" width="51" height="63" as="geometry" />
        </mxCell>
      </root>
    </mxGraphModel>
  </diagram>
</mxfile>
